PathFileType	4	(X/Y/Z)	OpenSim_Sub04_CSStiffKnee_Gyro.trc
DataRate	CameraRate	NumFrames	NumMarkers	Units	OrigDataRate	OrigDataStartFrame	OrigNumFrames
100	100	27	8	m	100	3707	7413
Frame#	Time	torso_imu_offset_imu	pelvis_imu_offset_imu	tibia_r_imu_offset_imu	femur_r_imu_offset_imu	tibia_l_imu_offset_imu	femur_l_imu_offset_imu	toes_r_imu_offset_imu	toes_l_imu_offset_imu
				X1	Y1	Z1	X2	Y2	Z2	X3	Y3	Z3	X4	Y4	Z4	X5	Y5	Z5	X6	Y6	Z6	X7	Y7	Z7	X8		Y8	Z8	

3707	37.06000000	0.37989365	0.17204703	-0.23040511	-0.02408384	0.15210530	0.41046727	0.55387078	1.62375555	4.96411543	1.26927099	0.13779050	0.83047997	0.52352319	-0.20012529	0.58868348	0.46840964	-0.49614797	0.76411273	-0.35087484	4.55931183	2.20038920	0.08776385	-0.23272611	0.12389247
3708	37.07000000	0.33368678	0.16855879	-0.20062564	0.02588835	0.14997384	0.38782969	0.35799621	1.64543080	5.07979677	1.39427003	0.12407219	0.76281517	0.51808193	-0.17559088	0.57820094	0.51077567	-0.57226169	0.74185970	-0.44095987	4.56356170	2.04064660	0.06825112	-0.19752455	0.15441858
3709	37.08000000	0.27584647	0.16527198	-0.16732558	0.09055808	0.16211870	0.37312389	-0.01378144	1.58572461	5.01382465	1.36201308	0.10907015	0.73808120	0.46594375	-0.15224753	0.58202875	0.55309207	-0.61935046	0.72388473	-0.45775745	4.57513413	1.85161011	0.04705752	-0.17259060	0.18823521
3710	37.09000000	0.22851104	0.14974281	-0.13499399	0.16624409	0.18795724	0.36195233	-0.50641796	1.49409107	4.77842375	1.22898515	0.11235203	0.74835573	0.46311281	-0.15447742	0.58192514	0.57253111	-0.63945385	0.72050472	-0.40949295	4.48109927	1.63087334	0.02026461	-0.14286421	0.23675952
3711	37.10000000	0.19164323	0.12740648	-0.10381865	0.25221420	0.23119132	0.33845188	-0.89835760	1.39765402	4.51425895	1.10286564	0.13769767	0.75354376	0.48643355	-0.14512057	0.57038037	0.54547428	-0.64536729	0.74208243	-0.43340025	4.30792614	1.45284340	-0.00990295	-0.13506419	0.29494621
3712	37.11000000	0.15823515	0.09879052	-0.07486444	0.33309552	0.27759356	0.31137257	-1.07566481	1.36470830	4.36516891	1.01816837	0.15048686	0.71209804	0.56690306	-0.13572674	0.55439120	0.52225666	-0.63829714	0.78585508	-0.52851766	4.16611892	1.38215540	0.00966608	-0.12550552	0.33647015
3713	37.12000000	0.12821683	0.06395783	-0.05026034	0.40774422	0.32124336	0.27250534	-1.01684579	1.35839202	4.32099445	0.95839139	0.13299784	0.62219863	0.65274587	-0.14311455	0.58186938	0.50691665	-0.62687755	0.85364978	-0.62114511	4.00059995	1.39774637	-0.01265216	-0.12598035	0.37572655
3714	37.13000000	0.09357626	0.02747865	-0.03048348	0.46164169	0.34510736	0.23857863	-0.83985376	1.30741375	4.26374610	0.89254599	0.08682277	0.51793822	0.71118539	-0.13833383	0.65581823	0.50983459	-0.58500098	0.93043055	-0.57925690	3.75896558	1.44942485	-0.00489645	-0.11583896	0.38072926
3715	37.14000000	0.06166879	-0.00827376	-0.00685806	0.49614204	0.34718850	0.20873672	-0.58990732	1.19438526	4.13230127	0.79820314	0.02126070	0.43876969	0.75850831	-0.11071215	0.71499317	0.48194790	-0.54717467	0.97244476	-0.45815696	3.50156593	1.52366489	0.02094690	-0.11533911	0.35540662
3716	37.15000000	0.03190523	-0.04545161	0.01886930	0.52649319	0.31381865	0.16365811	-0.36376258	1.08955523	3.90359946	0.64266499	-0.06050967	0.38314206	0.74558314	-0.07070837	0.73851533	0.45238297	-0.51489312	0.97878484	-0.35747540	3.26997486	1.59971258	0.04313333	-0.13308158	0.33563551
3717	37.16000000	-0.00747463	-0.05705090	0.02844291	0.57215930	0.24823168	0.12853963	-0.18553376	1.03176845	3.60991775	0.37698169	-0.15236464	0.36368250	0.67893865	-0.04678816	0.76885081	0.49053664	-0.47664437	0.96121489	-0.30859427	2.97748688	1.62031545	0.07845624	-0.14471784	0.31185723
3718	37.17000000	-0.05872846	-0.05011341	0.03787878	0.61607288	0.18651827	0.10707388	-0.02590897	0.91885308	3.29837327	0.01841456	-0.19382469	0.37835749	0.58264020	-0.03880643	0.84756446	0.53614221	-0.49028576	0.92342112	-0.32217984	2.60639906	1.53426160	0.10293711	-0.16851955	0.30275247
3719	37.18000000	-0.10682871	-0.04654004	0.04801322	0.64411738	0.13105300	0.10043867	-0.00781788	0.76771090	2.93560965	-0.34305437	-0.15012928	0.39909530	0.48632752	-0.03894885	0.93763650	0.55930570	-0.52843218	0.86358497	-0.46615074	2.23094326	1.31341394	0.13364392	-0.20598968	0.31301103
3720	37.19000000	-0.14336667	-0.04218907	0.04972675	0.65888838	0.07979182	0.09746496	-0.09505723	0.62068995	2.53071199	-0.66792891	-0.09445422	0.45870184	0.44479551	-0.03187632	1.00408884	0.54835747	-0.53712750	0.79436620	-0.03674199	1.81451616	0.78141096	0.09291599	-0.30452821	0.36267942
3721	37.20000000	-0.16508456	-0.05856254	0.05332896	0.63444906	0.03922569	0.10064357	-0.22848384	0.39966190	2.11900811	-0.95965140	-0.08330306	0.49864720	0.47628548	-0.01652333	1.07368652	0.53780103	-0.51822568	0.72073556	0.38705216	1.54289087	0.20449031	0.11862528	-0.39588803	0.39246229
3722	37.21000000	-0.20571967	-0.08968240	0.06186665	0.60176578	0.01438545	0.10521584	-0.50405630	0.19749949	1.62533921	-1.14391963	-0.12940607	0.47516241	0.51427771	-0.00620750	1.18151787	0.59209626	-0.47015008	0.65526773	0.38517977	1.30019447	-0.18996425	0.17521854	-0.48203530	0.39551194
3723	37.22000000	-0.26271677	-0.12657178	0.07540729	0.56496709	0.00090449	0.10545989	-0.74778361	0.00339384	1.02284451	-1.18810260	-0.21986544	0.41276056	0.54658278	-0.00783817	1.30642286	0.66944286	-0.38687779	0.62049549	0.45968330	0.74357728	-0.43297687	0.21192550	-0.60686195	0.38750338
3724	37.23000000	-0.31446288	-0.17800501	0.08678297	0.54683353	0.00667814	0.09932214	-0.83503675	-0.20371141	0.40728116	-1.13328577	-0.35956930	0.38624096	0.60788518	0.00390843	1.41463305	0.76504466	-0.30459540	0.62086152	0.57494522	-0.11501031	-0.33966149	0.29186190	-0.74881153	0.35425195
3725	37.24000000	-0.34299904	-0.24221639	0.08687401	0.53137632	0.03203556	0.08302268	-0.69100869	-0.32766602	-0.19300014	-0.97240309	-0.53690443	0.39482961	0.71593037	0.03066876	1.50042453	0.86327879	-0.24160873	0.61609185	0.49215275	-1.24506003	0.23305760	0.38056084	-0.92227571	0.33482452
3726	37.25000000	-0.36652826	-0.32824326	0.07982781	0.52768318	0.07672732	0.08266182	-0.26884847	-0.39065085	-0.85695174	-0.68177428	-0.74384525	0.44754775	0.78764398	0.04791322	1.59353202	0.96084759	-0.21775721	0.59647775	1.44760386	-2.51887353	0.77454867	0.48692636	-1.11435833	0.31713249
3727	37.26000000	-0.37908344	-0.41397411	0.08842807	0.53792379	0.14793051	0.09286258	0.41170875	-0.50389120	-1.70538984	-0.38559291	-0.88365558	0.52015503	0.78839871	0.05718068	1.70651744	1.03968212	-0.18762205	0.57977661	0.52484814	-4.01679845	1.18584747	0.62579912	-1.34161683	0.27800032
3728	37.27000000	-0.38523826	-0.46957002	0.10672381	0.50393793	0.30950396	0.10227374	1.52767702	-0.67948630	-2.63675629	0.02327938	-0.79562368	0.60449244	0.75833817	0.04874767	1.81016542	1.07357010	-0.09707797	0.56365653	1.02204372	-2.70333630	0.27481850	0.76338379	-1.60953005	0.23964087
3729	37.28000000	-0.37900972	-0.45924776	0.12621737	0.38772966	0.55802171	0.12360337	2.16339248	-1.30555032	-3.01234600	0.95769226	-0.61372197	0.63256142	0.65871533	0.09258067	1.88438119	1.05149365	0.02827791	0.52621034	1.65756264	-1.82254467	-0.89903234	0.91124380	-1.90875149	0.20772968
3730	37.29000000	-0.34964599	-0.39717504	0.14256367	0.19488062	0.63816150	0.14131152	1.40047888	-1.33894481	-2.36259219	1.76118885	-0.59580857	0.77546786	0.46130525	0.12145088	1.96124699	0.95118042	0.16769308	0.42823627	1.28108293	-1.91612109	-0.78515107	1.11645195	-2.18295550	0.18785121
3731	37.30000000	-0.30378901	-0.35969347	0.13773495	0.10286233	0.40155119	0.15923354	2.11274695	-0.20028168	-1.48332043	2.10621492	-0.61951519	0.65768565	0.28930508	0.10421956	2.04268730	0.80886832	0.31659221	0.29632079	1.89522458	-0.92143366	-0.65081938	1.17010160	-2.45109360	0.23908072
3732	37.31000000	-0.29913837	-0.35287312	0.11614327	0.16287869	0.13240733	0.22046687	3.63851840	0.69447824	-1.29894803	2.55329441	-0.57808465	-0.05392156	0.13865834	0.06001359	2.13934312	0.69685470	0.51513142	0.15626008	1.23434110	-0.72110393	-0.41091502	1.15473783	-2.71635822	0.30875125
3733	37.32000000	-0.31589270	-0.34086954	0.06074210	0.19668729	0.01204771	0.33298535	2.76698426	0.21939467	-1.67688173	2.85398495	-0.58512529	-0.67465149	0.04816681	-0.01861405	2.25228177	0.61196660	0.72835076	-0.02929076	0.93177152	-0.59600136	-0.12976116	1.32832554	-2.96976462	0.34925292
